# xmcd
#
# Track frame offsets: 
#        150
#        13679
#        27075
#        37902
#        50669
#        68571
#        86099
#        105699
#        122564
#        137411
#        154512
#        173452
#        191492
#
# Disc length: 2733 seconds
#
# Revision: 0
# Processed by: cddbd v1.5.2PL0 Copyright (c) Steve Scherf et al.
# Submitted via: ExactAudioCopy v0.99pb4
#
DISCID=970aab0d
DTITLE=The Dick Frost Band - Cadillacs
DYEAR=2008
DGENRE=Country
TTITLE0=Saddle Up
TTITLE1=Sippin' The Jack
TTITLE2=Tip Jars and Credit Cards
TTITLE3=Must've Been Drunk
TTITLE4=There You Go Again
TTITLE5=Any Time Left
TTITLE6=Woman Like
TTITLE7=The Hardest Part
TTITLE8=Spade Cooley
TTITLE9=Johnnie
TTITLE10=Desert Blue
TTITLE11=Wherever You Are
TTITLE12=Cadillacs Fly By
EXTD=
EXTT0=
EXTT1=
EXTT2=
EXTT3=
EXTT4=
EXTT5=
EXTT6=
EXTT7=
EXTT8=
EXTT9=
EXTT10=
EXTT11=
EXTT12=
PLAYORDER=
